<?xml version="1.0" encoding="iso-8859-1"?>
<!-- Generator: Adobe Illustrator 19.0.0, SVG Export Plug-In . SVG Version: 6.00 Build 0)  -->
<svg version="1.1" id="Layer_1" xmlns="http://www.w3.org/2000/svg" xmlns:xlink="http://www.w3.org/1999/xlink" x="0px" y="0px"
	 viewBox="0 0 512 512" style="enable-background:new 0 0 512 512;" xml:space="preserve">
<path style="fill:#C1E7F7;" d="M258.591,0.633c-1.625-0.843-3.557-0.844-5.18,0c-26.867,13.95-44.229,43.208-44.229,74.536v70.296
	c0,1.843,0.903,3.567,2.415,4.617c0.956,0.662,2.075,1.004,3.206,1.004c0.663,0,1.329-0.117,1.965-0.355
	c6.833-2.55,14.042-3.843,21.427-3.843h35.611c7.382,0,14.591,1.292,21.426,3.842c1.726,0.644,3.657,0.4,5.17-0.649
	c1.513-1.051,2.415-2.776,2.415-4.617V75.169C302.817,43.839,285.456,14.582,258.591,0.633z"/>
<g style="opacity:0.1;">
	<path style="fill:#231F20;" d="M227.17,145.465V75.169c0-28.76,14.639-55.767,37.825-70.794c-2.071-1.341-4.2-2.598-6.403-3.741
		c-1.625-0.843-3.557-0.844-5.18,0c-26.867,13.95-44.229,43.208-44.229,74.536v70.296c0,1.843,0.903,3.567,2.415,4.617
		c0.956,0.662,2.075,1.004,3.206,1.004c0.663,0,1.329-0.117,1.965-0.355c3.546-1.323,7.195-2.3,10.915-2.941
		C227.357,147.069,227.17,146.281,227.17,145.465z"/>
</g>
<path style="fill:#FFD960;" d="M351.995,500.265l-29.928-93.504c-1.193-3.726-4.655-6.253-8.566-6.253H198.5
	c-3.911,0-7.374,2.527-8.566,6.253l-29.928,93.504c-0.876,2.735-0.393,5.725,1.3,8.044c1.694,2.319,4.394,3.691,7.266,3.691H343.43
	c2.872,0,5.572-1.372,7.266-3.691C352.389,505.99,352.871,502.999,351.995,500.265z"/>
<polygon style="fill:#FF9737;" points="293.611,512 218.386,512 231.842,406.129 280.153,406.129 "/>
<path style="fill:#578CAD;" d="M148.101,218.647c16.217,0,29.362,13.145,29.362,29.362v160.369h-37.312
	c-11.826,0-21.412-9.585-21.412-21.41V248.009C118.738,231.792,131.884,218.647,148.101,218.647z"/>
<path style="fill:#3A5D74;" d="M118.738,356.634v30.334c0,11.825,9.586,21.41,21.412,21.41h37.312v-51.744H118.738z"/>
<path style="fill:#578CAD;" d="M393.261,324.566v-76.557c0-16.217-13.145-29.362-29.364-29.362
	c-16.216,0-29.361,13.145-29.361,29.362v160.369h37.312c11.826,0,21.412-9.585,21.412-21.41V324.566"/>
<path style="fill:#3A5D74;" d="M334.537,356.634v51.744h37.312c11.826,0,21.412-9.585,21.412-21.41v-30.334H334.537z"/>
<path style="fill:#90C8EC;" d="M273.806,138.211h-35.611c-35.404,0-64.104,28.701-64.104,64.101v206.067h163.818V202.311
	C337.91,166.912,309.21,138.211,273.806,138.211z"/>
<g>
	<path style="opacity:0.1;fill:#231F20;enable-background:new    ;" d="M179.293,508.309c-1.693-2.319-2.177-5.31-1.3-8.044
		l29.928-93.504c1.193-3.726,4.655-6.253,8.566-6.253H198.5c-3.911,0-7.374,2.527-8.566,6.253l-29.928,93.504
		c-0.876,2.735-0.393,5.725,1.3,8.044c1.694,2.319,4.394,3.691,7.266,3.691h17.988C183.687,512,180.986,510.629,179.293,508.309z"/>
	<path style="opacity:0.1;fill:#231F20;enable-background:new    ;" d="M136.726,386.968V248.009
		c0-13.079,8.552-24.154,20.369-27.953c-2.834-0.912-5.856-1.409-8.994-1.409c-16.218,0-29.363,13.145-29.363,29.362v138.96
		c0,11.825,9.586,21.41,21.412,21.41h17.988C146.314,408.378,136.726,398.793,136.726,386.968z"/>
	<path style="opacity:0.1;fill:#231F20;enable-background:new    ;" d="M372.892,220.056c-2.834-0.912-5.856-1.409-8.995-1.409
		c-16.216,0-29.361,13.145-29.361,29.362v160.369h17.988V248.009C352.525,234.929,361.077,223.855,372.892,220.056z"/>
</g>
<rect x="174.088" y="356.63" style="fill:#C1E7F7;" width="163.824" height="51.749"/>
<circle style="fill:#578CAD;" cx="256" cy="222.644" r="25.746"/>
<path style="opacity:0.1;fill:#231F20;enable-background:new    ;" d="M247.568,222.639c0-11.179,7.13-20.693,17.09-24.249
	c-2.706-0.966-5.62-1.496-8.658-1.496c-14.219,0-25.747,11.528-25.747,25.745c0,14.218,11.528,25.745,25.747,25.745
	c3.038,0,5.952-0.531,8.658-1.496C254.698,243.332,247.568,233.82,247.568,222.639z"/>
<path style="fill:#3A5D74;" d="M256,383.502c-4.658,0-8.432-3.774-8.432-8.432v-74.94c0-4.658,3.774-8.432,8.432-8.432
	s8.432,3.774,8.432,8.432v74.94C264.432,379.728,260.658,383.502,256,383.502z"/>
<path style="opacity:0.1;fill:#231F20;enable-background:new    ;" d="M256.182,138.211h-17.988
	c-35.404,0-64.104,28.701-64.104,64.101v206.067h17.988V202.311C192.079,166.912,220.778,138.211,256.182,138.211z"/>
<g>
</g>
<g>
</g>
<g>
</g>
<g>
</g>
<g>
</g>
<g>
</g>
<g>
</g>
<g>
</g>
<g>
</g>
<g>
</g>
<g>
</g>
<g>
</g>
<g>
</g>
<g>
</g>
<g>
</g>
</svg>
