<?xml version="1.0" encoding="iso-8859-1"?>
<!-- Generator: Adobe Illustrator 19.0.0, SVG Export Plug-In . SVG Version: 6.00 Build 0)  -->
<svg version="1.1" id="Layer_1" xmlns="http://www.w3.org/2000/svg" xmlns:xlink="http://www.w3.org/1999/xlink" x="0px" y="0px"
	 viewBox="0 0 496.159 496.159" style="enable-background:new 0 0 496.159 496.159;" xml:space="preserve">
<path style="fill:#334D5C;" d="M248.083,0.003C111.071,0.003,0,111.063,0,248.085c0,137.001,111.07,248.07,248.083,248.07
	c137.006,0,248.076-111.069,248.076-248.07C496.159,111.062,385.089,0.003,248.083,0.003z"/>
<g>
	<polygon style="fill:#34BC1D;" points="254.184,52.079 241.205,52.079 235.694,113.079 259.694,113.079 	"/>
	<circle style="fill:#34BC1D;" cx="247.69" cy="53.079" r="18"/>
</g>
<path style="fill:#51CC37;" d="M258.137,41.601c-6.053-6.053-15.867-6.053-21.92,0s-6.053,15.868,0,21.92
	C242.269,69.575,264.19,47.654,258.137,41.601z"/>
<g>
	<path style="fill:#34BC1D;" d="M354.768,216.083c0.389-56.08-47.769-106.697-106.696-106.697
		c-58.929,0-110.158,51.699-106.696,106.697c3.461,54.999,15.923,134.37,15.923,170.253c0,28.904-10.329,71.144-14.348,86.485
		c31.923,14.959,67.547,23.333,105.133,23.333c37.576,0,73.191-8.371,105.108-23.323c-4.02-15.311-14.347-57.465-14.347-86.495
		C338.845,350.293,354.38,272.163,354.768,216.083z"/>
	<circle style="fill:#34BC1D;" cx="248.63" cy="212.809" r="56.808"/>
</g>
<circle style="fill:#C44600;" cx="248.63" cy="371.809" r="52.807"/>
<circle style="fill:#FFFFFF;" cx="248.63" cy="212.809" r="52.808"/>
<g>
	<circle style="fill:#9B9410;" cx="248.63" cy="212.809" r="27.314"/>
	<ellipse style="fill:#9B9410;" cx="250.03" cy="212.909" rx="3.75" ry="16.251"/>
</g>
<g style="opacity:0.3;">
	<path style="fill:#EFE350;" d="M264.898,195.164c-9.365-9.365-24.549-9.365-33.914,0c-9.366,9.365-9.366,24.549,0,33.915
		S274.263,204.529,264.898,195.164z"/>
</g>
<g>
	<path style="fill:#EDEAB7;" d="M295.031,346.58c-8.952-16.428-26.373-27.576-46.399-27.576s-37.447,11.148-46.399,27.576h-0.038
		l9.079,15.394l9.663-15.074l8.889,15.074l9.663-15.073l8.889,15.073l9.663-15.073l8.889,15.073l9.662-15.074l8.89,15.074
		l9.868-15.394H295.031z"/>
	<path style="fill:#EDEAB7;" d="M295.271,396.58h-0.685l-8.649-14.667l-9.402,14.667h-0.428l-8.649-14.667l-9.402,14.667h-0.427
		l-8.649-14.667l-9.402,14.667h-0.427l-8.65-14.667L221.1,396.58h-0.427l-8.649-14.667l-9.402,14.667h-0.63
		c0.095,0.178,0.196,0.351,0.292,0.527l-0.089,0.139h0.166c8.986,16.313,26.331,27.373,46.271,27.373
		c19.94,0,37.285-11.06,46.271-27.373h0.078l-0.04-0.068C295.05,396.978,295.164,396.782,295.271,396.58z"/>
</g>
<g>
</g>
<g>
</g>
<g>
</g>
<g>
</g>
<g>
</g>
<g>
</g>
<g>
</g>
<g>
</g>
<g>
</g>
<g>
</g>
<g>
</g>
<g>
</g>
<g>
</g>
<g>
</g>
<g>
</g>
</svg>
