<?xml version="1.0" encoding="iso-8859-1"?>
<!-- Generator: Adobe Illustrator 19.0.0, SVG Export Plug-In . SVG Version: 6.00 Build 0)  -->
<svg version="1.1" id="Layer_1" xmlns="http://www.w3.org/2000/svg" xmlns:xlink="http://www.w3.org/1999/xlink" x="0px" y="0px"
	 viewBox="0 0 512 512" style="enable-background:new 0 0 512 512;" xml:space="preserve">
<g>
	<g>
		<path d="M468.114,124.343v194.365l-43.886-5.851V168.229h-43.886v138.777l-65.829-8.777V92.426
			C314.514,39.231,256,7.314,256,7.314s-58.514,31.917-58.514,85.112V298.23l-65.829,8.777V168.229H87.771v144.628l-43.886,5.851
			V124.343H0V460.8h43.886v-43.886h124.343V460.8h39.677C227.027,488.878,256,504.686,256,504.686s28.973-15.808,48.094-43.886
			h39.677v-43.886h124.343V460.8H512V124.343H468.114z M256.029,449.918c-8.973-8.631-17.905-20.114-20.145-33.003h40.24
			C273.9,429.837,265.005,441.297,256.029,449.918z M277.943,373.029h-43.886v-102.4h43.886V373.029z"/>
	</g>
</g>
<g>
</g>
<g>
</g>
<g>
</g>
<g>
</g>
<g>
</g>
<g>
</g>
<g>
</g>
<g>
</g>
<g>
</g>
<g>
</g>
<g>
</g>
<g>
</g>
<g>
</g>
<g>
</g>
<g>
</g>
</svg>
