<?xml version="1.0" encoding="iso-8859-1"?>
<!-- Generator: Adobe Illustrator 19.0.0, SVG Export Plug-In . SVG Version: 6.00 Build 0)  -->
<svg version="1.1" id="Layer_1" xmlns="http://www.w3.org/2000/svg" xmlns:xlink="http://www.w3.org/1999/xlink" x="0px" y="0px"
	 viewBox="0 0 512 512" style="enable-background:new 0 0 512 512;" xml:space="preserve">
<g>
	<g>
		<path d="M414.118,382.173v-92.291l-75.294-56.471V120.471C338.824,45.176,256,0,256,0s-82.824,45.176-82.824,120.471v112.941
			l-75.294,56.471v92.291L52.706,427.35v39.474h120.471V512h165.647v-45.176h120.471V427.35L414.118,382.173z M173.176,421.647
			h-50.879l20.762-20.762v-88.415l30.118-22.588V421.647z M293.647,466.824h-75.294V120.471c0-18.295,9.001-36.826,26.752-55.078
			c3.659-3.763,7.362-7.159,10.895-10.159c3.533,3,7.236,6.396,10.895,10.159c17.751,18.251,26.752,36.783,26.752,55.078V466.824z
			 M338.824,421.647V289.882l30.118,22.588v88.415l20.762,20.762H338.824z"/>
	</g>
</g>
<g>
</g>
<g>
</g>
<g>
</g>
<g>
</g>
<g>
</g>
<g>
</g>
<g>
</g>
<g>
</g>
<g>
</g>
<g>
</g>
<g>
</g>
<g>
</g>
<g>
</g>
<g>
</g>
<g>
</g>
</svg>
